<mxfile host="app.diagrams.net" agent="Mozilla/5.0 (Windows NT 10.0; Win64; x64) AppleWebKit/537.36 (KHTML, like Gecko) Chrome/129.0.0.0 Safari/537.36" version="24.7.16">
  <diagram name="Page-1" id="FeNSiu1vrpdzJU6li4sQ">
    <mxGraphModel dx="880" dy="460" grid="1" gridSize="10" guides="1" tooltips="1" connect="1" arrows="1" fold="1" page="1" pageScale="1" pageWidth="850" pageHeight="1100" math="0" shadow="0">
      <root>
        <mxCell id="0" />
        <mxCell id="1" parent="0" />
        <mxCell id="SyvcPrhUcTAlDS3E91bm-1" value="&lt;h1 style=&quot;margin-top: 0px;&quot;&gt;Pre-registration process (campus registrar) in portal system&amp;nbsp;&amp;nbsp;&lt;/h1&gt;" style="text;html=1;whiteSpace=wrap;overflow=hidden;rounded=0;align=center;movable=1;resizable=1;rotatable=1;deletable=1;editable=1;locked=0;connectable=1;" parent="1" vertex="1">
          <mxGeometry x="135" y="20" width="580" height="70" as="geometry" />
        </mxCell>
        <mxCell id="SyvcPrhUcTAlDS3E91bm-11" style="edgeStyle=orthogonalEdgeStyle;rounded=0;orthogonalLoop=1;jettySize=auto;html=1;exitX=0.5;exitY=1;exitDx=0;exitDy=0;entryX=0.5;entryY=0;entryDx=0;entryDy=0;" parent="1" source="SyvcPrhUcTAlDS3E91bm-4" target="SyvcPrhUcTAlDS3E91bm-8" edge="1">
          <mxGeometry relative="1" as="geometry" />
        </mxCell>
        <mxCell id="SyvcPrhUcTAlDS3E91bm-14" value="Yes" style="edgeLabel;html=1;align=center;verticalAlign=middle;resizable=0;points=[];" parent="SyvcPrhUcTAlDS3E91bm-11" vertex="1" connectable="0">
          <mxGeometry x="-0.32" y="1" relative="1" as="geometry">
            <mxPoint as="offset" />
          </mxGeometry>
        </mxCell>
        <mxCell id="SyvcPrhUcTAlDS3E91bm-12" style="edgeStyle=orthogonalEdgeStyle;rounded=0;orthogonalLoop=1;jettySize=auto;html=1;exitX=1;exitY=0.5;exitDx=0;exitDy=0;entryX=0;entryY=0.5;entryDx=0;entryDy=0;" parent="1" source="SyvcPrhUcTAlDS3E91bm-4" target="SyvcPrhUcTAlDS3E91bm-7" edge="1">
          <mxGeometry relative="1" as="geometry" />
        </mxCell>
        <mxCell id="SyvcPrhUcTAlDS3E91bm-13" value="No" style="edgeLabel;html=1;align=center;verticalAlign=middle;resizable=0;points=[];" parent="SyvcPrhUcTAlDS3E91bm-12" vertex="1" connectable="0">
          <mxGeometry x="-0.2267" y="-1" relative="1" as="geometry">
            <mxPoint as="offset" />
          </mxGeometry>
        </mxCell>
        <mxCell id="SyvcPrhUcTAlDS3E91bm-4" value="" style="rhombus;whiteSpace=wrap;html=1;" parent="1" vertex="1">
          <mxGeometry x="335" y="340" width="110" height="100" as="geometry" />
        </mxCell>
        <mxCell id="SyvcPrhUcTAlDS3E91bm-5" value="Is valid?" style="text;html=1;align=center;verticalAlign=middle;whiteSpace=wrap;rounded=0;" parent="1" vertex="1">
          <mxGeometry x="360" y="375" width="60" height="30" as="geometry" />
        </mxCell>
        <mxCell id="SyvcPrhUcTAlDS3E91bm-6" value="" style="rounded=0;whiteSpace=wrap;html=1;" parent="1" vertex="1">
          <mxGeometry x="520" y="355" width="140" height="70" as="geometry" />
        </mxCell>
        <mxCell id="SyvcPrhUcTAlDS3E91bm-7" value="Show error message:&lt;div&gt;&quot;Incorrect username/password&quot;&lt;/div&gt;" style="text;html=1;align=center;verticalAlign=middle;whiteSpace=wrap;rounded=0;" parent="1" vertex="1">
          <mxGeometry x="520" y="370" width="140" height="40" as="geometry" />
        </mxCell>
        <mxCell id="hEnt9ywJXe-8F-uIfgRp-30" style="edgeStyle=orthogonalEdgeStyle;rounded=0;orthogonalLoop=1;jettySize=auto;html=1;exitX=0.5;exitY=1;exitDx=0;exitDy=0;entryX=0.5;entryY=0;entryDx=0;entryDy=0;" parent="1" source="SyvcPrhUcTAlDS3E91bm-8" target="hEnt9ywJXe-8F-uIfgRp-27" edge="1">
          <mxGeometry relative="1" as="geometry" />
        </mxCell>
        <mxCell id="SyvcPrhUcTAlDS3E91bm-8" value="" style="rounded=0;whiteSpace=wrap;html=1;" parent="1" vertex="1">
          <mxGeometry x="320" y="490" width="140" height="70" as="geometry" />
        </mxCell>
        <mxCell id="SyvcPrhUcTAlDS3E91bm-9" value="View Dashboard" style="text;html=1;align=center;verticalAlign=middle;whiteSpace=wrap;rounded=0;" parent="1" vertex="1">
          <mxGeometry x="320" y="505" width="140" height="40" as="geometry" />
        </mxCell>
        <mxCell id="SyvcPrhUcTAlDS3E91bm-25" style="edgeStyle=orthogonalEdgeStyle;rounded=0;orthogonalLoop=1;jettySize=auto;html=1;exitX=0.5;exitY=1;exitDx=0;exitDy=0;entryX=0.5;entryY=0;entryDx=0;entryDy=0;" parent="1" source="SyvcPrhUcTAlDS3E91bm-15" target="SyvcPrhUcTAlDS3E91bm-17" edge="1">
          <mxGeometry relative="1" as="geometry" />
        </mxCell>
        <mxCell id="SyvcPrhUcTAlDS3E91bm-15" value="" style="rounded=0;whiteSpace=wrap;html=1;" parent="1" vertex="1">
          <mxGeometry x="320" y="700" width="140" height="70" as="geometry" />
        </mxCell>
        <mxCell id="SyvcPrhUcTAlDS3E91bm-16" value="Review each pre-registration form" style="text;html=1;align=center;verticalAlign=middle;whiteSpace=wrap;rounded=0;" parent="1" vertex="1">
          <mxGeometry x="320" y="715" width="140" height="40" as="geometry" />
        </mxCell>
        <mxCell id="SyvcPrhUcTAlDS3E91bm-26" style="edgeStyle=orthogonalEdgeStyle;rounded=0;orthogonalLoop=1;jettySize=auto;html=1;exitX=1;exitY=0.5;exitDx=0;exitDy=0;entryX=0;entryY=0.5;entryDx=0;entryDy=0;" parent="1" source="SyvcPrhUcTAlDS3E91bm-17" edge="1">
          <mxGeometry relative="1" as="geometry">
            <mxPoint x="540" y="860" as="targetPoint" />
          </mxGeometry>
        </mxCell>
        <mxCell id="SyvcPrhUcTAlDS3E91bm-30" value="No" style="edgeLabel;html=1;align=center;verticalAlign=middle;resizable=0;points=[];" parent="SyvcPrhUcTAlDS3E91bm-26" vertex="1" connectable="0">
          <mxGeometry x="-0.0526" y="-2" relative="1" as="geometry">
            <mxPoint as="offset" />
          </mxGeometry>
        </mxCell>
        <mxCell id="hEnt9ywJXe-8F-uIfgRp-8" style="edgeStyle=orthogonalEdgeStyle;rounded=0;orthogonalLoop=1;jettySize=auto;html=1;exitX=0.5;exitY=1;exitDx=0;exitDy=0;entryX=0.5;entryY=0;entryDx=0;entryDy=0;" parent="1" source="SyvcPrhUcTAlDS3E91bm-17" target="hEnt9ywJXe-8F-uIfgRp-7" edge="1">
          <mxGeometry relative="1" as="geometry" />
        </mxCell>
        <mxCell id="hEnt9ywJXe-8F-uIfgRp-9" value="Yes" style="edgeLabel;html=1;align=center;verticalAlign=middle;resizable=0;points=[];" parent="hEnt9ywJXe-8F-uIfgRp-8" vertex="1" connectable="0">
          <mxGeometry x="-0.2667" relative="1" as="geometry">
            <mxPoint as="offset" />
          </mxGeometry>
        </mxCell>
        <mxCell id="SyvcPrhUcTAlDS3E91bm-17" value="" style="rhombus;whiteSpace=wrap;html=1;" parent="1" vertex="1">
          <mxGeometry x="335" y="810" width="110" height="100" as="geometry" />
        </mxCell>
        <mxCell id="SyvcPrhUcTAlDS3E91bm-18" value="pre-requisite passed?" style="text;html=1;align=center;verticalAlign=middle;whiteSpace=wrap;rounded=0;" parent="1" vertex="1">
          <mxGeometry x="360" y="845" width="60" height="30" as="geometry" />
        </mxCell>
        <mxCell id="SyvcPrhUcTAlDS3E91bm-19" value="" style="rounded=0;whiteSpace=wrap;html=1;" parent="1" vertex="1">
          <mxGeometry x="540" y="825" width="140" height="70" as="geometry" />
        </mxCell>
        <mxCell id="SyvcPrhUcTAlDS3E91bm-20" value="Uncheck checkmark subject" style="text;html=1;align=center;verticalAlign=middle;whiteSpace=wrap;rounded=0;" parent="1" vertex="1">
          <mxGeometry x="540" y="840" width="140" height="40" as="geometry" />
        </mxCell>
        <mxCell id="hEnt9ywJXe-8F-uIfgRp-3" style="edgeStyle=orthogonalEdgeStyle;rounded=0;orthogonalLoop=1;jettySize=auto;html=1;exitX=0.5;exitY=1;exitDx=0;exitDy=0;entryX=0.5;entryY=0;entryDx=0;entryDy=0;" parent="1" source="hEnt9ywJXe-8F-uIfgRp-1" target="SyvcPrhUcTAlDS3E91bm-4" edge="1">
          <mxGeometry relative="1" as="geometry" />
        </mxCell>
        <mxCell id="hEnt9ywJXe-8F-uIfgRp-1" value="" style="rounded=0;whiteSpace=wrap;html=1;" parent="1" vertex="1">
          <mxGeometry x="320" y="230" width="140" height="75" as="geometry" />
        </mxCell>
        <mxCell id="hEnt9ywJXe-8F-uIfgRp-2" value="Login to the system as adviser" style="text;html=1;align=center;verticalAlign=middle;whiteSpace=wrap;rounded=0;" parent="1" vertex="1">
          <mxGeometry x="335" y="252.5" width="100" height="30" as="geometry" />
        </mxCell>
        <mxCell id="hEnt9ywJXe-8F-uIfgRp-6" style="edgeStyle=orthogonalEdgeStyle;rounded=0;orthogonalLoop=1;jettySize=auto;html=1;exitX=0.5;exitY=1;exitDx=0;exitDy=0;entryX=0.5;entryY=0;entryDx=0;entryDy=0;" parent="1" source="hEnt9ywJXe-8F-uIfgRp-4" target="hEnt9ywJXe-8F-uIfgRp-1" edge="1">
          <mxGeometry relative="1" as="geometry" />
        </mxCell>
        <mxCell id="hEnt9ywJXe-8F-uIfgRp-4" value="" style="ellipse;whiteSpace=wrap;html=1;" parent="1" vertex="1">
          <mxGeometry x="330" y="110" width="120" height="80" as="geometry" />
        </mxCell>
        <mxCell id="hEnt9ywJXe-8F-uIfgRp-5" value="START" style="text;html=1;align=center;verticalAlign=middle;whiteSpace=wrap;rounded=0;" parent="1" vertex="1">
          <mxGeometry x="360" y="135" width="60" height="30" as="geometry" />
        </mxCell>
        <mxCell id="nV3J0QXQUYTeU2AQdvQt-4" style="edgeStyle=orthogonalEdgeStyle;rounded=0;orthogonalLoop=1;jettySize=auto;html=1;exitX=0.5;exitY=1;exitDx=0;exitDy=0;entryX=0.5;entryY=0;entryDx=0;entryDy=0;" parent="1" source="hEnt9ywJXe-8F-uIfgRp-7" target="nV3J0QXQUYTeU2AQdvQt-2" edge="1">
          <mxGeometry relative="1" as="geometry" />
        </mxCell>
        <mxCell id="hEnt9ywJXe-8F-uIfgRp-7" value="" style="rounded=0;whiteSpace=wrap;html=1;" parent="1" vertex="1">
          <mxGeometry x="320" y="970" width="140" height="75" as="geometry" />
        </mxCell>
        <mxCell id="hEnt9ywJXe-8F-uIfgRp-10" value="Place checkmark subject" style="text;html=1;align=center;verticalAlign=middle;whiteSpace=wrap;rounded=0;" parent="1" vertex="1">
          <mxGeometry x="340" y="992.5" width="100" height="30" as="geometry" />
        </mxCell>
        <mxCell id="hEnt9ywJXe-8F-uIfgRp-31" style="edgeStyle=orthogonalEdgeStyle;rounded=0;orthogonalLoop=1;jettySize=auto;html=1;exitX=0.5;exitY=1;exitDx=0;exitDy=0;entryX=0.5;entryY=0;entryDx=0;entryDy=0;" parent="1" source="hEnt9ywJXe-8F-uIfgRp-27" target="SyvcPrhUcTAlDS3E91bm-15" edge="1">
          <mxGeometry relative="1" as="geometry" />
        </mxCell>
        <mxCell id="hEnt9ywJXe-8F-uIfgRp-27" value="" style="rounded=0;whiteSpace=wrap;html=1;" parent="1" vertex="1">
          <mxGeometry x="320" y="600" width="140" height="70" as="geometry" />
        </mxCell>
        <mxCell id="hEnt9ywJXe-8F-uIfgRp-28" value="View students&#39; pre-registration forms" style="text;html=1;align=center;verticalAlign=middle;whiteSpace=wrap;rounded=0;" parent="1" vertex="1">
          <mxGeometry x="320" y="615" width="140" height="40" as="geometry" />
        </mxCell>
        <mxCell id="nV3J0QXQUYTeU2AQdvQt-8" style="edgeStyle=orthogonalEdgeStyle;rounded=0;orthogonalLoop=1;jettySize=auto;html=1;exitX=1;exitY=0.5;exitDx=0;exitDy=0;entryX=0;entryY=0.5;entryDx=0;entryDy=0;" parent="1" source="nV3J0QXQUYTeU2AQdvQt-2" target="nV3J0QXQUYTeU2AQdvQt-5" edge="1">
          <mxGeometry relative="1" as="geometry" />
        </mxCell>
        <mxCell id="nV3J0QXQUYTeU2AQdvQt-15" value="Yes" style="edgeLabel;html=1;align=center;verticalAlign=middle;resizable=0;points=[];" parent="nV3J0QXQUYTeU2AQdvQt-8" vertex="1" connectable="0">
          <mxGeometry x="-0.269" y="-1" relative="1" as="geometry">
            <mxPoint x="1" as="offset" />
          </mxGeometry>
        </mxCell>
        <mxCell id="nV3J0QXQUYTeU2AQdvQt-9" style="edgeStyle=orthogonalEdgeStyle;rounded=0;orthogonalLoop=1;jettySize=auto;html=1;exitX=0.5;exitY=1;exitDx=0;exitDy=0;entryX=0.5;entryY=0;entryDx=0;entryDy=0;" parent="1" source="nV3J0QXQUYTeU2AQdvQt-2" target="nV3J0QXQUYTeU2AQdvQt-6" edge="1">
          <mxGeometry relative="1" as="geometry" />
        </mxCell>
        <mxCell id="nV3J0QXQUYTeU2AQdvQt-16" value="No" style="edgeLabel;html=1;align=center;verticalAlign=middle;resizable=0;points=[];" parent="nV3J0QXQUYTeU2AQdvQt-9" vertex="1" connectable="0">
          <mxGeometry x="-0.2" y="1" relative="1" as="geometry">
            <mxPoint as="offset" />
          </mxGeometry>
        </mxCell>
        <mxCell id="nV3J0QXQUYTeU2AQdvQt-2" value="" style="rhombus;whiteSpace=wrap;html=1;" parent="1" vertex="1">
          <mxGeometry x="332.5" y="1100" width="115" height="110" as="geometry" />
        </mxCell>
        <mxCell id="nV3J0QXQUYTeU2AQdvQt-3" value="Total units &amp;gt;= 24?" style="text;html=1;align=center;verticalAlign=middle;whiteSpace=wrap;rounded=0;" parent="1" vertex="1">
          <mxGeometry x="340" y="1140" width="100" height="30" as="geometry" />
        </mxCell>
        <mxCell id="nV3J0QXQUYTeU2AQdvQt-5" value="" style="rounded=0;whiteSpace=wrap;html=1;" parent="1" vertex="1">
          <mxGeometry x="520" y="1115" width="140" height="80" as="geometry" />
        </mxCell>
        <mxCell id="nV3J0QXQUYTeU2AQdvQt-14" style="edgeStyle=orthogonalEdgeStyle;rounded=0;orthogonalLoop=1;jettySize=auto;html=1;exitX=0.5;exitY=1;exitDx=0;exitDy=0;entryX=0.5;entryY=0;entryDx=0;entryDy=0;" parent="1" source="nV3J0QXQUYTeU2AQdvQt-6" target="nV3J0QXQUYTeU2AQdvQt-11" edge="1">
          <mxGeometry relative="1" as="geometry" />
        </mxCell>
        <mxCell id="nV3J0QXQUYTeU2AQdvQt-6" value="" style="rounded=0;whiteSpace=wrap;html=1;" parent="1" vertex="1">
          <mxGeometry x="320" y="1270" width="140" height="80" as="geometry" />
        </mxCell>
        <mxCell id="nV3J0QXQUYTeU2AQdvQt-10" value="Approve pre-registration form" style="text;html=1;align=center;verticalAlign=middle;whiteSpace=wrap;rounded=0;" parent="1" vertex="1">
          <mxGeometry x="330" y="1295" width="120" height="30" as="geometry" />
        </mxCell>
        <mxCell id="nV3J0QXQUYTeU2AQdvQt-11" value="" style="ellipse;whiteSpace=wrap;html=1;" parent="1" vertex="1">
          <mxGeometry x="330" y="1400" width="120" height="80" as="geometry" />
        </mxCell>
        <mxCell id="nV3J0QXQUYTeU2AQdvQt-12" value="Display error message and disable submit button" style="text;html=1;align=center;verticalAlign=middle;whiteSpace=wrap;rounded=0;" parent="1" vertex="1">
          <mxGeometry x="530" y="1140" width="120" height="30" as="geometry" />
        </mxCell>
        <mxCell id="nV3J0QXQUYTeU2AQdvQt-13" value="END" style="text;html=1;align=center;verticalAlign=middle;whiteSpace=wrap;rounded=0;" parent="1" vertex="1">
          <mxGeometry x="330" y="1425" width="120" height="30" as="geometry" />
        </mxCell>
      </root>
    </mxGraphModel>
  </diagram>
</mxfile>
